<svg width="25" height="24" viewBox="0 0 25 24" fill="none" xmlns="http://www.w3.org/2000/svg">
<path fill-rule="evenodd" clip-rule="evenodd" d="M2.73719 2.28845C2.34423 2.15746 1.91949 2.36983 1.78851 2.76279C1.65752 3.15575 1.86989 3.58049 2.26285 3.71147L2.52776 3.79978C3.20417 4.02524 3.65137 4.17551 3.98082 4.32877C4.29278 4.47389 4.42765 4.59069 4.51407 4.71059C4.60049 4.83049 4.66864 4.99538 4.70767 5.33722C4.74889 5.69823 4.75002 6.17 4.75002 6.883L4.75002 9.55484C4.75 10.9224 4.74998 12.0247 4.86654 12.8917C4.98756 13.7918 5.24645 14.5497 5.84837 15.1516C6.45029 15.7535 7.20816 16.0124 8.10827 16.1334C8.97523 16.25 10.0775 16.25 11.4451 16.25H19.5C19.9142 16.25 20.25 15.9142 20.25 15.5C20.25 15.0857 19.9142 14.75 19.5 14.75H11.5C10.0646 14.75 9.06349 14.7484 8.30814 14.6468C7.57437 14.5482 7.18579 14.3677 6.90903 14.091C6.81233 13.9943 6.72739 13.8839 6.65359 13.75H16.5585C17.0068 13.75 17.4012 13.75 17.7286 13.7147C18.0831 13.6764 18.4265 13.5914 18.7495 13.3784C19.0726 13.1653 19.286 12.8832 19.4608 12.5725C19.6223 12.2855 19.7776 11.923 19.9542 11.5109L20.421 10.4216C20.8055 9.52461 21.1271 8.77416 21.2881 8.16381C21.4561 7.52707 21.4998 6.86226 21.1036 6.26135C20.7074 5.66045 20.0791 5.43877 19.4277 5.34233C18.8032 5.24989 17.9868 5.24992 17.0108 5.24996L6.20678 5.24996C6.20403 5.22197 6.2011 5.19434 6.19799 5.16708C6.14264 4.68226 6.02203 4.2374 5.73094 3.83352C5.43984 3.42965 5.05595 3.17456 4.61351 2.96873C4.19728 2.7751 3.66795 2.59868 3.04158 2.38991L2.73719 2.28845ZM6.25002 6.74996C6.25002 6.7802 6.25002 6.81067 6.25002 6.84135L6.25002 9.49996C6.25002 10.6719 6.25108 11.5544 6.30675 12.25H16.5218C17.0177 12.25 17.3303 12.2489 17.5676 12.2233C17.7869 12.1997 17.8712 12.1608 17.9238 12.1261C17.9764 12.0914 18.0454 12.0292 18.1535 11.837C18.2705 11.629 18.3946 11.3421 18.5899 10.8863L19.0185 9.88628C19.433 8.91908 19.7085 8.27127 19.8378 7.78121C19.9634 7.30498 19.8997 7.16045 19.8513 7.08709C19.803 7.01373 19.6952 6.89828 19.208 6.82616C18.7066 6.75193 18.0027 6.74996 16.9504 6.74996H6.25002Z" fill="#17140F"/>
<path fill-rule="evenodd" clip-rule="evenodd" d="M5.75002 19.5C5.75002 20.7426 6.75738 21.75 8.00002 21.75C9.24266 21.75 10.25 20.7426 10.25 19.5C10.25 18.2573 9.24266 17.25 8.00002 17.25C6.75738 17.25 5.75002 18.2573 5.75002 19.5ZM8.00002 20.25C7.58581 20.25 7.25002 19.9142 7.25002 19.5C7.25002 19.0857 7.58581 18.75 8.00002 18.75C8.41423 18.75 8.75002 19.0857 8.75002 19.5C8.75002 19.9142 8.41423 20.25 8.00002 20.25Z" fill="#17140F"/>
<path fill-rule="evenodd" clip-rule="evenodd" d="M17 21.75C15.7574 21.75 14.75 20.7427 14.75 19.5C14.75 18.2574 15.7574 17.25 17 17.25C18.2427 17.25 19.25 18.2574 19.25 19.5C19.25 20.7427 18.2427 21.75 17 21.75ZM16.25 19.5C16.25 19.9142 16.5858 20.25 17 20.25C17.4142 20.25 17.75 19.9142 17.75 19.5C17.75 19.0858 17.4142 18.75 17 18.75C16.5858 18.75 16.25 19.0858 16.25 19.5Z" fill="#17140F"/>
</svg>
