<svg width="24" height="24" viewBox="0 0 24 24" fill="none" xmlns="http://www.w3.org/2000/svg">
<path d="M6.03033 4.96967C5.73744 4.67678 5.26256 4.67678 4.96967 4.96967C4.67678 5.26256 4.67678 5.73744 4.96967 6.03033L10.9394 12L4.96969 17.9697C4.6768 18.2626 4.6768 18.7374 4.96969 19.0303C5.26258 19.3232 5.73746 19.3232 6.03035 19.0303L12 13.0607L17.9696 19.0303C18.2625 19.3232 18.7374 19.3232 19.0303 19.0303C19.3232 18.7374 19.3232 18.2625 19.0303 17.9697L13.0607 12L19.0303 6.03035C19.3232 5.73746 19.3232 5.26258 19.0303 4.96969C18.7374 4.6768 18.2626 4.6768 17.9697 4.96969L12 10.9394L6.03033 4.96967Z" fill="#17140F"/>
</svg>
